<svg width="182" height="61" viewBox="0 0 182 61" fill="none" xmlns="http://www.w3.org/2000/svg">
<path d="M25.5738 53.675C37.9455 53.675 47.9748 43.6951 47.9748 31.3841C47.9748 19.0732 37.9455 9.09326 25.5738 9.09326C13.2021 9.09326 3.17285 19.0732 3.17285 31.3841C3.17285 43.6951 13.2021 53.675 25.5738 53.675Z" fill="#2A6419"/>
<path d="M47.9298 35.0151C48.0467 36.0705 48.456 36.8914 49.1577 37.4778C49.8594 38.0642 50.7074 38.3573 51.7015 38.3573C52.5787 38.3573 53.3096 38.1814 53.8944 37.8297C54.4987 37.4582 55.0249 36.9989 55.4733 36.4517L57.9878 38.3573C57.169 39.3737 56.2529 40.0969 55.2394 40.5269C54.2257 40.957 53.1634 41.1719 52.0523 41.1719C50.9998 41.1719 50.0056 40.996 49.07 40.6441C48.1344 40.2924 47.3255 39.7939 46.6432 39.1489C45.961 38.5039 45.4153 37.7319 45.0059 36.8328C44.6161 35.9142 44.4211 34.8977 44.4211 33.7837C44.4211 32.6697 44.6161 31.663 45.0059 30.7639C45.4153 29.8452 45.961 29.0635 46.6432 28.4185C47.3255 27.7735 48.1344 27.275 49.07 26.9233C50.0056 26.5714 50.9998 26.3955 52.0523 26.3955C53.0269 26.3955 53.9138 26.5714 54.713 26.9233C55.5316 27.2556 56.2237 27.7442 56.7889 28.3892C57.3737 29.0342 57.822 29.8355 58.134 30.7932C58.4652 31.7314 58.631 32.8162 58.631 34.0475V35.0151H47.9298ZM55.1223 32.3764C55.1029 31.3405 54.7813 30.5294 54.1575 29.943C53.5337 29.3371 52.6664 29.0342 51.5553 29.0342C50.5027 29.0342 49.6645 29.3371 49.0408 29.943C48.4366 30.5489 48.0662 31.3601 47.9298 32.3764H55.1223Z" fill="#2A6419"/>
<path d="M64.7191 35.0151C64.836 36.0705 65.2453 36.8914 65.947 37.4778C66.6487 38.0642 67.4967 38.3573 68.4908 38.3573C69.368 38.3573 70.0989 38.1814 70.6837 37.8297C71.288 37.4582 71.8142 36.9989 72.2626 36.4517L74.7771 38.3573C73.9583 39.3737 73.0422 40.0969 72.0287 40.5269C71.015 40.957 69.9527 41.1719 68.8416 41.1719C67.7891 41.1719 66.795 40.996 65.8593 40.6441C64.9237 40.2924 64.1148 39.7939 63.4325 39.1489C62.7503 38.5039 62.2046 37.7319 61.7952 36.8328C61.4054 35.9142 61.2104 34.8977 61.2104 33.7837C61.2104 32.6697 61.4054 31.663 61.7952 30.7639C62.2046 29.8452 62.7503 29.0635 63.4325 28.4185C64.1148 27.7735 64.9237 27.275 65.8593 26.9233C66.795 26.5714 67.7891 26.3955 68.8416 26.3955C69.8162 26.3955 70.7031 26.5714 71.5023 26.9233C72.321 27.2556 73.013 27.7442 73.5782 28.3892C74.163 29.0342 74.6113 29.8355 74.9233 30.7932C75.2545 31.7314 75.4203 32.8162 75.4203 34.0475V35.0151H64.7191ZM71.9116 32.3764C71.8922 31.3405 71.5706 30.5294 70.9468 29.943C70.323 29.3371 69.4557 29.0342 68.3446 29.0342C67.292 29.0342 66.4538 29.3371 65.8301 29.943C65.2259 30.5489 64.8555 31.3601 64.7191 32.3764H71.9116Z" fill="#2A6419"/>
<path d="M78.7014 26.7474H82.0345V29.0049H82.093C82.4244 28.3012 82.9312 27.6953 83.6135 27.1871C84.2957 26.6593 85.2216 26.3955 86.3911 26.3955C87.3267 26.3955 88.1162 26.5519 88.7594 26.8646C89.4222 27.1773 89.9581 27.5877 90.3674 28.0959C90.7769 28.6041 91.0692 29.1905 91.2447 29.8551C91.4201 30.5196 91.5078 31.2135 91.5078 31.9367V40.82H87.9992V33.6958C87.9992 33.3048 87.9797 32.8749 87.9408 32.4057C87.9017 31.9171 87.7946 31.4676 87.6192 31.0571C87.4632 30.6271 87.2097 30.2753 86.8589 30.0017C86.508 29.7085 86.0305 29.5618 85.4263 29.5618C84.8414 29.5618 84.3444 29.6596 83.9351 29.8551C83.5452 30.0505 83.2138 30.3144 82.941 30.6467C82.6875 30.979 82.5024 31.3601 82.3855 31.79C82.2684 32.2201 82.0345 32.5309 82.0345 33V40.82H78.7014V26.7474Z" fill="#2A6419"/>
<path d="M108.967 25.5168C108.214 24.7088 107.48 24.1701 106.766 23.9008C106.071 23.6315 105.366 23.4967 104.652 23.4967C103.59 23.4967 102.625 23.6892 101.756 24.0739C100.906 24.4395 100.173 24.9588 99.5551 25.6322C98.9372 26.2863 98.4547 27.0558 98.1071 27.9409C97.779 28.8258 97.6149 29.7781 97.6149 30.7978C97.6149 31.8943 97.779 32.9044 98.1071 33.8277C98.4547 34.7512 98.9372 35.5496 99.5551 36.223C100.173 36.8963 100.906 37.4253 101.756 37.8101C102.625 38.1948 103.59 38.3873 104.652 38.3873C105.482 38.3873 106.283 38.1948 107.055 37.8101C107.847 37.4061 108.581 36.7712 109.256 35.9055L112.268 38.041C111.341 39.3106 110.212 40.2341 108.88 40.8113C107.548 41.3884 106.129 41.677 104.623 41.677C103.04 41.677 101.582 41.4269 100.25 40.9267C98.9372 40.4073 97.7983 39.6859 96.8329 38.7624C95.8869 37.8197 95.1437 36.6943 94.6031 35.3861C94.0626 34.0779 93.7922 32.6254 93.7922 31.0285C93.7922 29.3933 94.0626 27.912 94.6031 26.5845C95.1437 25.2378 95.8869 24.0932 96.8329 23.1504C97.7983 22.2078 98.9372 21.4864 100.25 20.9861C101.582 20.4667 103.04 20.207 104.623 20.207C106.013 20.207 107.297 20.4571 108.474 20.9573C109.671 21.4383 110.781 22.2655 111.805 23.439L108.967 25.5168Z" fill="black"/>
<path d="M123.086 39.2532H122.999C122.497 40.042 121.86 40.6192 121.088 40.9847C120.316 41.331 119.466 41.5041 118.54 41.5041C117.902 41.5041 117.275 41.4176 116.657 41.2444C116.059 41.0713 115.518 40.8115 115.035 40.4652C114.572 40.1189 114.196 39.6861 113.906 39.1667C113.616 38.6472 113.472 38.0412 113.472 37.3487C113.472 36.5983 113.607 35.9635 113.877 35.444C114.147 34.9054 114.505 34.4628 114.949 34.1165C115.412 33.751 115.943 33.4625 116.541 33.2509C117.14 33.0392 117.758 32.8853 118.395 32.7892C119.051 32.6738 119.708 32.6064 120.364 32.5871C121.02 32.5487 121.638 32.5294 122.217 32.5294H123.086V32.1543C123.086 31.2886 122.787 30.6441 122.188 30.2209C121.59 29.7783 120.827 29.5571 119.901 29.5571C119.167 29.5571 118.482 29.6918 117.845 29.9611C117.207 30.2111 116.657 30.5574 116.194 31L114.369 29.182C115.142 28.3931 116.039 27.8257 117.063 27.4794C118.105 27.1331 119.177 26.96 120.277 26.96C121.262 26.96 122.092 27.0754 122.768 27.3063C123.443 27.5178 124.003 27.7968 124.447 28.1431C124.891 28.4894 125.229 28.8934 125.461 29.3551C125.712 29.7975 125.885 30.2497 125.982 30.7114C126.098 31.1731 126.165 31.6253 126.185 32.0677C126.204 32.491 126.214 32.8661 126.214 33.1932V41.1578H123.086V39.2532ZM122.883 34.9535H122.159C121.677 34.9535 121.136 34.9727 120.538 35.0112C119.939 35.0496 119.37 35.1458 118.829 35.2998C118.308 35.4344 117.864 35.6461 117.497 35.9347C117.13 36.2039 116.947 36.5887 116.947 37.0889C116.947 37.416 117.014 37.6949 117.15 37.9258C117.304 38.1374 117.497 38.3201 117.729 38.4741C117.96 38.628 118.221 38.7434 118.511 38.8204C118.8 38.8781 119.09 38.907 119.379 38.907C120.576 38.907 121.455 38.628 122.015 38.07C122.594 37.4929 122.883 36.7138 122.883 35.7326V34.9535Z" fill="black"/>
<path d="M129.952 27.3063H133.427V29.4994H133.486C133.872 28.6913 134.422 28.0662 135.136 27.6236C135.85 27.1812 136.671 26.96 137.598 26.96C137.81 26.96 138.013 26.9792 138.206 27.0177C138.418 27.0561 138.631 27.1042 138.843 27.1619V30.5095C138.554 30.4324 138.264 30.3747 137.975 30.3363C137.705 30.2786 137.434 30.2497 137.164 30.2497C136.353 30.2497 135.697 30.4036 135.194 30.7114C134.712 31 134.335 31.3367 134.065 31.7214C133.815 32.1062 133.641 32.491 133.544 32.8757C133.467 33.2605 133.427 33.5491 133.427 33.7414V41.1578H129.952V27.3063Z" fill="black"/>
<path d="M143.479 35.444C143.595 36.4829 144.001 37.2909 144.695 37.8681C145.391 38.4453 146.231 38.7338 147.214 38.7338C148.084 38.7338 148.807 38.5607 149.387 38.2144C149.985 37.8488 150.507 37.3968 150.951 36.858L153.441 38.7338C152.63 39.7342 151.722 40.446 150.719 40.8692C149.715 41.2924 148.662 41.5041 147.562 41.5041C146.52 41.5041 145.535 41.331 144.609 40.9847C143.682 40.6384 142.88 40.1478 142.205 39.513C141.53 38.8781 140.989 38.1182 140.583 37.2332C140.197 36.329 140.004 35.3286 140.004 34.232C140.004 33.1355 140.197 32.1447 140.583 31.2596C140.989 30.3555 141.53 29.586 142.205 28.9511C142.88 28.3162 143.682 27.8257 144.609 27.4794C145.535 27.1331 146.52 26.96 147.562 26.96C148.528 26.96 149.406 27.1331 150.198 27.4794C151.008 27.8064 151.693 28.2873 152.254 28.9222C152.833 29.5571 153.277 30.3459 153.586 31.2886C153.914 32.212 154.078 33.2797 154.078 34.4918V35.444H143.479ZM150.603 32.8469C150.584 31.8272 150.265 31.0288 149.647 30.4517C149.029 29.8552 148.17 29.5571 147.07 29.5571C146.028 29.5571 145.198 29.8552 144.58 30.4517C143.98 31.0481 143.614 31.8464 143.479 32.8469H150.603Z" fill="black"/>
<path d="M78.689 40.7725H83.4371C84.0932 40.7725 84.7238 40.8365 85.3285 40.9648C85.9463 41.0802 86.4931 41.2855 86.9692 41.5805C87.4453 41.8755 87.8249 42.2731 88.1079 42.7733C88.3911 43.2736 88.5326 43.9086 88.5326 44.6781C88.5326 45.6658 88.2559 46.4931 87.7027 47.1602C87.1622 47.8271 86.3837 48.2311 85.3673 48.3722L88.9958 54.3944H86.062L82.8967 48.6224L82 48.6224V54.3944L78.689 54.3944V40.7725ZM83.0124 46.5445C83.3599 46.5445 83.7073 46.5316 84.0547 46.506C84.4022 46.4674 84.7174 46.3905 85.0005 46.2751C85.2964 46.1468 85.5345 45.9609 85.7146 45.7171C85.8947 45.4606 85.9848 45.1079 85.9848 44.6589C85.9848 44.2613 85.9012 43.9405 85.7339 43.6969C85.5666 43.4532 85.3478 43.2736 85.0776 43.1582C84.8074 43.0298 84.5051 42.9465 84.1705 42.9081C83.8488 42.8696 83.5335 42.8504 83.2247 42.8504L82 42.9081V46.5445L83.0124 46.5445Z" fill="#2A6419"/>
<path d="M89.3796 44.9668H91.8888L93.8961 51.4314H93.9347L95.8069 44.9668H98.316L100.323 51.4314H100.362L102.292 44.9668H104.628L101.482 54.202H99.1847L96.9843 47.8913H96.9457L94.9963 54.202H92.6028L89.3796 44.9668Z" fill="#2A6419"/>
<path d="M111.786 52.9321H111.728C111.394 53.458 110.969 53.8428 110.455 54.0865C109.94 54.3174 109.374 54.4328 108.756 54.4328C108.331 54.4328 107.913 54.3751 107.502 54.2597C107.103 54.1442 106.742 53.9711 106.421 53.7402C106.112 53.5094 105.861 53.2206 105.668 52.8744C105.475 52.5281 105.378 52.124 105.378 51.6623C105.378 51.1621 105.468 50.7387 105.649 50.3924C105.829 50.0332 106.067 49.7382 106.363 49.5074C106.672 49.2636 107.025 49.0713 107.424 48.9302C107.823 48.789 108.235 48.6864 108.66 48.6223C109.097 48.5454 109.535 48.5004 109.972 48.4877C110.41 48.462 110.821 48.4491 111.207 48.4491H111.786V48.1991C111.786 47.6218 111.587 47.1921 111.188 46.91C110.789 46.615 110.281 46.4675 109.663 46.4675C109.174 46.4675 108.717 46.5573 108.293 46.7368C107.868 46.9035 107.501 47.1344 107.193 47.4294L105.977 46.2173C106.491 45.6914 107.09 45.313 107.772 45.0821C108.467 44.8513 109.181 44.7358 109.914 44.7358C110.57 44.7358 111.124 44.8128 111.574 44.9667C112.024 45.1078 112.398 45.2938 112.694 45.5247C112.99 45.7555 113.215 46.0249 113.369 46.3327C113.536 46.6277 113.652 46.9292 113.717 47.237C113.794 47.5449 113.839 47.8463 113.852 48.1414C113.865 48.4235 113.871 48.6736 113.871 48.8917V54.202H111.786V52.9321ZM111.651 50.0653H111.169C110.847 50.0653 110.487 50.0782 110.088 50.1038C109.689 50.1295 109.309 50.1936 108.949 50.2962C108.602 50.386 108.306 50.5271 108.061 50.7195C107.817 50.8991 107.695 51.1556 107.695 51.489C107.695 51.7071 107.74 51.8932 107.83 52.047C107.933 52.1882 108.061 52.3099 108.216 52.4126C108.37 52.5152 108.544 52.5922 108.737 52.6435C108.93 52.682 109.123 52.7012 109.316 52.7012C110.114 52.7012 110.699 52.5152 111.072 52.1432C111.458 51.7584 111.651 51.239 111.651 50.5848V50.0653Z" fill="#2A6419"/>
<path d="M116.363 44.9667H118.563V46.4481H118.602C118.82 45.9864 119.155 45.5888 119.605 45.2553C120.056 44.909 120.667 44.7358 121.439 44.7358C122.057 44.7358 122.578 44.8384 123.002 45.0436C123.44 45.2488 123.794 45.5182 124.064 45.8518C124.334 46.1852 124.527 46.57 124.643 47.0061C124.759 47.4422 124.817 47.8976 124.817 48.3722V54.202H122.501V49.5266C122.501 49.27 122.488 48.9879 122.462 48.68C122.436 48.3593 122.365 48.0643 122.25 47.7949C122.147 47.5128 121.979 47.2819 121.748 47.1023C121.516 46.91 121.201 46.8138 120.802 46.8138C120.416 46.8138 120.088 46.8779 119.818 47.0061C119.56 47.1344 119.342 47.3076 119.161 47.5257C118.994 47.7437 118.872 47.9938 118.795 48.276C118.718 48.5581 118.679 48.8532 118.679 49.1611V54.202H116.363V44.9667Z" fill="#2A6419"/>
<path d="M134.78 52.8165H134.742C134.407 53.3809 133.957 53.7913 133.39 54.0478C132.824 54.3043 132.214 54.4326 131.557 54.4326C130.837 54.4326 130.193 54.3108 129.627 54.067C129.074 53.8105 128.598 53.4642 128.198 53.0281C127.8 52.592 127.498 52.0789 127.292 51.4889C127.085 50.8989 126.982 50.2639 126.982 49.5841C126.982 48.9044 127.092 48.2694 127.311 47.6793C127.529 47.0893 127.832 46.5763 128.219 46.1402C128.617 45.7041 129.093 45.3641 129.646 45.1205C130.2 44.8639 130.804 44.7357 131.46 44.7357C131.898 44.7357 132.284 44.7805 132.619 44.8703C132.953 44.9601 133.25 45.0755 133.506 45.2166C133.764 45.3578 133.983 45.5116 134.162 45.6785C134.342 45.8323 134.491 45.9862 134.606 46.1402H134.665V39.6562H136.981V54.2018H134.78V52.8165ZM129.299 49.5841C129.299 49.9433 129.357 50.2896 129.473 50.6231C129.601 50.9567 129.781 51.2517 130.013 51.5082C130.257 51.7647 130.548 51.9699 130.881 52.1239C131.216 52.2778 131.596 52.3547 132.02 52.3547C132.445 52.3547 132.824 52.2778 133.16 52.1239C133.493 51.9699 133.776 51.7647 134.009 51.5082C134.252 51.2517 134.432 50.9567 134.549 50.6231C134.677 50.2896 134.742 49.9433 134.742 49.5841C134.742 49.225 134.677 48.8786 134.549 48.5452C134.432 48.2117 134.252 47.9166 134.009 47.6601C133.776 47.4036 133.493 47.1984 133.16 47.0444C132.824 46.8905 132.445 46.8136 132.02 46.8136C131.596 46.8136 131.216 46.8905 130.881 47.0444C130.548 47.1984 130.257 47.4036 130.013 47.6601C129.781 47.9166 129.601 48.2117 129.473 48.5452C129.357 48.8786 129.299 49.225 129.299 49.5841Z" fill="#2A6419"/>
<path d="M145.394 52.9321H145.336C145.001 53.458 144.577 53.8428 144.062 54.0865C143.548 54.3174 142.982 54.4328 142.364 54.4328C141.938 54.4328 141.521 54.3751 141.108 54.2597C140.71 54.1442 140.349 53.9711 140.028 53.7402C139.72 53.5094 139.469 53.2206 139.276 52.8744C139.083 52.5281 138.986 52.124 138.986 51.6623C138.986 51.1621 139.076 50.7387 139.257 50.3924C139.436 50.0332 139.674 49.7382 139.97 49.5074C140.28 49.2636 140.632 49.0713 141.032 48.9302C141.431 48.789 141.842 48.6864 142.267 48.6223C142.705 48.5454 143.142 48.5004 143.579 48.4877C144.017 48.462 144.429 48.4491 144.814 48.4491H145.394V48.1991C145.394 47.6218 145.194 47.1921 144.795 46.91C144.397 46.615 143.888 46.4675 143.271 46.4675C142.781 46.4675 142.326 46.5573 141.9 46.7368C141.475 46.9035 141.108 47.1344 140.8 47.4294L139.584 46.2173C140.099 45.6914 140.697 45.313 141.379 45.0821C142.074 44.8513 142.789 44.7358 143.521 44.7358C144.177 44.7358 144.731 44.8128 145.181 44.9667C145.632 45.1078 146.005 45.2938 146.301 45.5247C146.598 45.7555 146.822 46.0249 146.977 46.3327C147.143 46.6277 147.26 46.9292 147.324 47.237C147.401 47.5449 147.447 47.8463 147.459 48.1414C147.472 48.4235 147.478 48.6736 147.478 48.8917V54.202H145.394V52.9321ZM145.259 50.0653H144.776C144.454 50.0653 144.095 50.0782 143.695 50.1038C143.296 50.1295 142.917 50.1936 142.557 50.2962C142.209 50.386 141.913 50.5271 141.668 50.7195C141.424 50.8991 141.303 51.1556 141.303 51.489C141.303 51.7071 141.347 51.8932 141.437 52.047C141.54 52.1882 141.668 52.3099 141.823 52.4126C141.978 52.5152 142.152 52.5922 142.345 52.6435C142.537 52.682 142.73 52.7012 142.923 52.7012C143.722 52.7012 144.307 52.5152 144.68 52.1432C145.066 51.7584 145.259 51.239 145.259 50.5848V50.0653Z" fill="#2A6419"/>
<path d="M151.159 40.5801H153.013V52.4704H159.289V54.202H151.159V40.5801Z" fill="black"/>
<path d="M165.634 46.5827H163.144V50.7193C163.144 50.9758 163.15 51.2323 163.163 51.4888C163.176 51.7326 163.22 51.957 163.297 52.1622C163.388 52.3547 163.517 52.515 163.684 52.6433C163.865 52.7587 164.121 52.8164 164.456 52.8164C164.663 52.8164 164.875 52.7972 165.093 52.7587C165.313 52.7202 165.512 52.6497 165.692 52.547V54.1247C165.487 54.2403 165.216 54.3172 164.881 54.3557C164.559 54.407 164.309 54.4326 164.129 54.4326C163.459 54.4326 162.937 54.3428 162.564 54.1632C162.203 53.9709 161.933 53.7271 161.753 53.4321C161.585 53.1371 161.482 52.81 161.443 52.4509C161.418 52.0789 161.405 51.7069 161.405 51.335V46.5827H159.397V45.0819H161.405V42.5229H163.144V45.0819H165.634V46.5827Z" fill="black"/>
<path d="M177.05 54.2018H175.313V52.8934H175.273C174.938 53.3809 174.475 53.7592 173.884 54.0286C173.304 54.298 172.705 54.4326 172.086 54.4326C171.378 54.4326 170.735 54.3108 170.156 54.067C169.589 53.8234 169.1 53.4834 168.688 53.0473C168.289 52.6112 167.979 52.1045 167.761 51.5274C167.543 50.9502 167.432 50.3217 167.432 49.6418C167.432 48.9621 167.543 48.3335 167.761 47.7564C167.979 47.1663 168.289 46.6596 168.688 46.2364C169.1 45.8002 169.589 45.4603 170.156 45.2166C170.735 44.973 171.378 44.8511 172.086 44.8511C172.744 44.8511 173.362 44.9922 173.941 45.2743C174.521 45.5437 174.965 45.9156 175.273 46.3902H175.313V39.6562H177.05V54.2018ZM172.3 52.8165C172.763 52.8165 173.182 52.7396 173.555 52.5856C173.928 52.4189 174.244 52.2008 174.5 51.9314C174.758 51.6493 174.959 51.3157 175.099 50.9309C175.242 50.5333 175.313 50.1037 175.313 49.6418C175.313 49.1801 175.242 48.7569 175.099 48.3721C174.959 47.9744 174.758 47.6409 174.5 47.3716C174.244 47.0893 173.928 46.8713 173.555 46.7173C173.182 46.5506 172.763 46.4673 172.3 46.4673C171.836 46.4673 171.418 46.5506 171.044 46.7173C170.671 46.8713 170.355 47.0893 170.098 47.3716C169.84 47.6409 169.641 47.9744 169.499 48.3721C169.358 48.7569 169.287 49.1801 169.287 49.6418C169.287 50.1037 169.358 50.5333 169.499 50.9309C169.641 51.3157 169.84 51.6493 170.098 51.9314C170.355 52.2008 170.671 52.4189 171.044 52.5856C171.418 52.7396 171.836 52.8165 172.3 52.8165Z" fill="black"/>
<path d="M26.0347 33.5186V30.5579H34.2677V41.8846C33.7142 42.1829 33.0569 42.4699 32.2959 42.7453C31.5349 42.9978 30.7162 43.1928 29.8398 43.3306C28.9865 43.4912 28.1102 43.5715 27.2108 43.5715C24.7894 43.5715 22.6907 43.0436 20.915 41.9878C19.1622 40.9091 17.8131 39.4632 16.8675 37.65C15.9451 35.8138 15.4839 33.7711 15.4839 31.5218C15.4839 29.7087 15.7837 28.0562 16.3834 26.5643C16.9829 25.0725 17.8362 23.7757 18.9432 22.6739C20.0501 21.5494 21.3415 20.6887 22.8176 20.0919C24.2935 19.4952 25.9078 19.1968 27.6605 19.1968C28.1448 19.1968 28.7559 19.2426 29.494 19.3344C30.2319 19.4263 30.993 19.5869 31.7771 19.8165C32.5841 20.023 33.2991 20.3099 33.9217 20.6772L32.7111 23.4314C32.0884 23.2248 31.5349 23.0527 31.0506 22.915C30.5663 22.7772 30.0704 22.6739 29.5631 22.6051C29.0788 22.5133 28.4677 22.4674 27.7297 22.4674C26.6458 22.4674 25.608 22.6625 24.6164 23.0527C23.6246 23.4429 22.7369 24.0167 21.9528 24.774C21.1916 25.5084 20.5921 26.4381 20.154 27.5627C19.7388 28.6873 19.5313 29.9955 19.5313 31.4875C19.5313 33.2547 19.854 34.8154 20.4998 36.1696C21.1456 37.5008 22.045 38.5222 23.1981 39.2337C24.3511 39.9451 25.6542 40.3009 27.107 40.3009C27.8911 40.3009 28.5829 40.255 29.1826 40.1632C29.7822 40.0714 30.3126 39.9566 30.7738 39.8189V33.5186H26.0347Z" fill="white"/>
<path d="M34.7754 27.76H38.3472V30.0035H38.4068C38.8036 29.1769 39.3692 28.5374 40.1034 28.0847C40.8376 27.6321 41.681 27.4058 42.6335 27.4058C42.8518 27.4058 43.0602 27.4255 43.2586 27.4647C43.4769 27.5041 43.6952 27.5534 43.9135 27.6124V31.0367C43.6158 30.958 43.3181 30.8989 43.0205 30.8597C42.7426 30.8005 42.4648 30.771 42.187 30.771C41.3537 30.771 40.679 30.9285 40.163 31.2433C39.6669 31.5386 39.28 31.883 39.0021 32.2765C38.7441 32.6702 38.5655 33.0637 38.4663 33.4574C38.387 33.8509 38.3472 34.1462 38.3472 34.343V41.9296H34.7754V27.76Z" fill="white"/>
<path d="M34.2677 27.7847H26.0181V30.058H34.2677V27.7847Z" fill="white"/>
</svg>
