<svg width="356" height="61" viewBox="0 0 356 61" fill="none" xmlns="http://www.w3.org/2000/svg">
<path d="M9.93898 49.22C7.73898 49.22 6.21898 48.78 5.37898 47.9C4.53898 47.06 4.09898 45.96 4.05898 44.6C4.05898 43.44 4.27898 42.06 4.71899 40.46C5.19898 38.82 5.67898 37.26 6.15898 35.78C7.11898 32.94 8.11898 30.14 9.15899 27.38C10.199 24.62 11.239 21.96 12.279 19.4C13.359 16.84 14.379 14.4 15.339 12.08C16.339 9.76 17.259 7.62 18.099 5.66C15.379 5.7 13.019 5.78 11.019 5.9C9.05898 6.02 7.25898 6.18 5.61899 6.38C3.97898 6.54 2.27898 6.78 0.518985 7.1C0.718984 5.42 1.49898 4.14 2.85898 3.26C4.25898 2.34 6.11898 1.7 8.43898 1.34C10.759 0.979998 13.419 0.799998 16.419 0.799998C17.979 0.799998 19.439 0.839998 20.799 0.919997C22.199 0.959999 23.519 1.04 24.759 1.16C26.039 1.28 27.279 1.4 28.479 1.52C30.999 1.76 32.999 1.92 34.479 2C35.999 2.08 37.079 2.12 37.719 2.12C36.519 3.24 34.999 4.06 33.159 4.58C31.359 5.06 29.459 5.36 27.459 5.48C25.459 5.6 23.559 5.66 21.759 5.66C19.839 10.38 18.079 15.28 16.479 20.36C14.879 25.44 13.399 30.46 12.039 35.42C11.519 37.34 11.079 38.98 10.719 40.34C10.399 41.66 10.159 42.88 9.99899 44C9.83898 45.08 9.75898 46.24 9.75898 47.48C9.75898 47.68 9.75898 47.9 9.75898 48.14C9.79898 48.42 9.85898 48.78 9.93898 49.22ZM25.7002 45.92C23.9002 45.92 22.6602 45.32 21.9802 44.12C21.3402 42.96 21.0202 41.68 21.0202 40.28C21.0202 39 21.2202 37.7 21.6202 36.38C22.0202 35.02 22.5602 33.76 23.2402 32.6C23.9602 31.44 24.7402 30.52 25.5802 29.84C26.4602 29.12 27.3402 28.76 28.2202 28.76C28.5002 28.76 28.8202 28.82 29.1802 28.94C29.5802 29.02 29.8602 29.16 30.0202 29.36C29.5402 29.96 29.0402 30.7 28.5202 31.58C28.0402 32.46 27.5802 33.4 27.1402 34.4C26.7402 35.36 26.4202 36.34 26.1802 37.34C25.9402 38.34 25.8202 39.26 25.8202 40.1C25.8202 40.9 25.9602 41.56 26.2402 42.08C26.5602 42.6 27.1002 42.86 27.8602 42.86C28.6202 42.86 29.5202 42.44 30.5602 41.6C31.6402 40.72 32.6602 39.72 33.6202 38.6C32.3402 37.44 31.4202 36.18 30.8602 34.82C30.3002 33.42 30.0202 31.74 30.0202 29.78C30.0202 28.94 30.2202 27.98 30.6202 26.9C31.0602 25.82 31.7402 24.88 32.6602 24.08C33.6202 23.28 34.9002 22.88 36.5002 22.88C38.2202 22.88 39.4202 23.36 40.1002 24.32C40.8202 25.28 41.1802 26.42 41.1802 27.74C41.1802 29.22 40.7802 30.88 39.9802 32.72C39.2202 34.56 38.3002 36.3 37.2202 37.94C37.7002 38.18 38.2602 38.3 38.9002 38.3C39.5002 38.3 40.2202 38.16 41.0602 37.88C41.9002 37.6 42.7202 37.14 43.5202 36.5C44.3202 35.82 44.9602 34.92 45.4402 33.8L46.5202 34.58C45.6402 36.62 44.4602 38.12 42.9802 39.08C41.5402 40 40.1202 40.46 38.7202 40.46C38.2002 40.46 37.6802 40.42 37.1602 40.34C36.6402 40.22 36.1602 40.08 35.7202 39.92C34.3602 41.52 32.8002 42.92 31.0402 44.12C29.2802 45.32 27.5002 45.92 25.7002 45.92ZM35.1802 36.68C36.1402 35.28 36.9602 33.78 37.6402 32.18C38.3202 30.58 38.6602 29.1 38.6602 27.74C38.6602 26.82 38.5202 26.16 38.2402 25.76C37.9602 25.32 37.5402 25.1 36.9802 25.1C36.2202 25.1 35.4402 25.64 34.6402 26.72C33.8402 27.8 33.4402 29.16 33.4402 30.8C33.4402 31.64 33.5802 32.66 33.8602 33.86C34.1802 35.06 34.6202 36 35.1802 36.68ZM64.2845 45.2C62.7245 45.2 61.5245 44.8 60.6845 44C59.8845 43.24 59.4845 42.26 59.4845 41.06C59.4845 40.26 59.6245 39.42 59.9045 38.54C60.1845 37.62 60.4645 36.7 60.7445 35.78C61.0245 34.86 61.1645 33.98 61.1645 33.14C61.1645 32.26 60.9445 31.66 60.5045 31.34C60.1045 30.98 59.6245 30.8 59.0645 30.8C57.8645 30.8 56.6245 31.3 55.3445 32.3C54.1045 33.26 52.8845 34.48 51.6845 35.96C50.5245 37.44 49.4245 38.98 48.3845 40.58C47.3445 42.18 46.4445 43.62 45.6845 44.9C44.9245 44.9 44.2045 44.76 43.5245 44.48C42.8445 44.24 42.2645 43.8 41.7845 43.16C41.8245 42.96 42.0645 42.36 42.5045 41.36C42.9045 40.32 43.3645 39.1 43.8845 37.7C44.4045 36.26 44.8645 34.76 45.2645 33.2C45.6645 31.64 45.8645 30.22 45.8645 28.94C46.1445 28.62 46.5645 28.3 47.1245 27.98C47.7245 27.66 48.3445 27.5 48.9845 27.5C50.3845 27.5 51.0845 28.1 51.0845 29.3C51.0845 29.78 50.9845 30.5 50.7845 31.46C50.6245 32.38 50.3845 33.44 50.0645 34.64C51.1045 33.24 52.2445 31.92 53.4845 30.68C54.7245 29.44 56.0045 28.44 57.3245 27.68C58.6845 26.88 60.0445 26.48 61.4045 26.48C63.1245 26.48 64.3845 27.06 65.1845 28.22C66.0245 29.38 66.4445 30.66 66.4445 32.06C66.4445 33.26 66.2445 34.38 65.8445 35.42C65.4445 36.46 65.0445 37.44 64.6445 38.36C64.2845 39.28 64.1045 40.18 64.1045 41.06C64.1045 41.7 64.2445 42.16 64.5245 42.44C64.8445 42.68 65.1845 42.8 65.5445 42.8C66.5045 42.8 67.5045 42.34 68.5445 41.42C69.5845 40.5 70.5645 39.34 71.4845 37.94C72.4445 36.5 73.2845 35.06 74.0045 33.62L75.0245 34.46C74.1845 36.42 73.2245 38.22 72.1445 39.86C71.1045 41.46 69.9245 42.76 68.6045 43.76C67.3245 44.72 65.8845 45.2 64.2845 45.2ZM75.3038 60.8C74.3038 60.8 73.3638 60.48 72.4838 59.84C71.6438 59.24 71.2238 58.26 71.2238 56.9C71.2238 55.62 71.6038 54.46 72.3638 53.42C73.1238 52.42 74.1038 51.48 75.3038 50.6C76.5038 49.76 77.7838 48.98 79.1438 48.26C80.5438 47.58 81.8838 46.94 83.1638 46.34C83.6038 45.18 84.0838 43.72 84.6038 41.96C85.1638 40.16 85.6438 38.5 86.0438 36.98C84.8038 38.7 83.4838 40.22 82.0838 41.54C80.6838 42.86 79.1238 43.52 77.4038 43.52C76.6838 43.52 75.9238 43.38 75.1238 43.1C74.3238 42.78 73.6438 42.26 73.0838 41.54C72.5638 40.78 72.3038 39.78 72.3038 38.54C72.3038 37.5 72.4838 36.24 72.8438 34.76C73.2438 33.28 73.7238 31.84 74.2838 30.44C74.8838 29 75.5038 27.82 76.1438 26.9C76.7838 25.94 77.3438 25.46 77.8238 25.46C78.0638 25.46 78.4038 25.56 78.8438 25.76C79.3238 25.92 79.7838 26.16 80.2238 26.48C80.6638 26.76 80.9438 27.08 81.0638 27.44C80.7038 27.92 80.3038 28.62 79.8638 29.54C79.4238 30.42 79.0038 31.42 78.6038 32.54C78.2038 33.62 77.8638 34.68 77.5838 35.72C77.3438 36.76 77.2238 37.66 77.2238 38.42C77.2238 39.02 77.3438 39.54 77.5838 39.98C77.8238 40.42 78.2838 40.64 78.9638 40.64C79.8438 40.64 80.7438 40.28 81.6638 39.56C82.6238 38.84 83.5438 37.92 84.4238 36.8C85.3438 35.68 86.1638 34.54 86.8838 33.38C86.9638 33.1 87.0438 32.66 87.1238 32.06C87.2038 31.46 87.3438 30.84 87.5438 30.2C87.7438 29.52 88.0838 28.9 88.5638 28.34C89.0838 27.78 89.8038 27.5 90.7238 27.5C91.0438 27.5 91.3438 27.52 91.6238 27.56C91.9038 27.6 92.2438 27.66 92.6438 27.74C92.6438 28.34 92.4238 29.52 91.9838 31.28C91.5838 33 91.0438 35 90.3638 37.28C89.6838 39.56 88.9238 41.84 88.0838 44.12C89.7638 43.44 91.5038 42.32 93.3038 40.76C95.1438 39.16 96.6238 36.9 97.7438 33.98L98.7638 34.82C98.1638 36.82 97.2438 38.56 96.0038 40.04C94.8038 41.52 93.4438 42.78 91.9238 43.82C90.4038 44.86 88.8638 45.72 87.3038 46.4C86.2238 49 85.0438 51.4 83.7638 53.6C82.5238 55.8 81.2038 57.54 79.8038 58.82C78.4038 60.14 76.9038 60.8 75.3038 60.8ZM74.7038 58.58C75.4638 58.58 76.5238 57.78 77.8838 56.18C79.2438 54.58 80.6238 52.18 82.0238 48.98C80.7438 49.62 79.4438 50.36 78.1238 51.2C76.8438 52.08 75.7638 53 74.8838 53.96C74.0038 54.92 73.5638 55.9 73.5638 56.9C73.5638 57.3 73.6438 57.68 73.8038 58.04C74.0038 58.4 74.3038 58.58 74.7038 58.58ZM126.553 49.22C124.233 49.22 122.113 48.6 120.193 47.36C118.273 46.16 116.753 44.44 115.633 42.2C114.513 39.96 113.953 37.28 113.953 34.16C113.953 31.08 114.433 27.98 115.393 24.86C116.353 21.7 117.673 18.7 119.353 15.86C121.033 12.98 122.993 10.42 125.233 8.18C127.473 5.9 129.853 4.12 132.373 2.84C134.933 1.52 137.553 0.859998 140.233 0.859998C140.633 0.859998 141.213 0.939998 141.973 1.1C142.773 1.26 143.553 1.74 144.313 2.54C144.073 2.5 143.793 2.48 143.473 2.48C143.193 2.44 142.893 2.42 142.573 2.42C140.493 2.42 138.393 3.08 136.273 4.4C134.153 5.68 132.133 7.42 130.213 9.62C128.293 11.82 126.573 14.32 125.053 17.12C123.573 19.88 122.393 22.76 121.513 25.76C120.633 28.76 120.193 31.68 120.193 34.52C120.193 36.6 120.473 38.54 121.033 40.34C121.593 42.14 122.493 43.58 123.733 44.66C124.973 45.78 126.613 46.34 128.653 46.34C130.853 46.34 132.913 45.68 134.833 44.36C136.753 43.04 138.493 41.28 140.053 39.08C141.613 36.84 142.953 34.36 144.073 31.64C145.193 28.88 146.053 26.06 146.653 23.18C147.253 20.26 147.553 17.48 147.553 14.84C147.553 13.68 147.473 12.44 147.313 11.12C147.153 9.76 146.873 8.6 146.473 7.64C146.113 6.68 145.573 6.2 144.853 6.2C144.173 6.2 143.433 6.64 142.633 7.52C141.833 8.36 141.053 9.44 140.293 10.76C139.533 12.08 138.853 13.48 138.253 14.96C137.693 16.4 137.293 17.7 137.053 18.86C135.693 18.58 134.713 18.14 134.113 17.54C133.553 16.94 133.273 16.22 133.273 15.38C133.273 14.3 133.653 13.1 134.413 11.78C135.173 10.46 136.153 9.2 137.353 8C138.593 6.76 139.873 5.74 141.193 4.94C142.553 4.14 143.813 3.74 144.973 3.74C146.173 3.74 147.133 4.18 147.853 5.06C148.613 5.9 149.193 7 149.593 8.36C149.993 9.72 150.273 11.18 150.433 12.74C150.593 14.26 150.673 15.68 150.673 17C150.673 21.08 150.173 24.82 149.173 28.22C148.173 31.58 146.813 34.56 145.093 37.16C143.413 39.76 141.513 41.96 139.393 43.76C137.313 45.56 135.153 46.92 132.913 47.84C130.713 48.76 128.593 49.22 126.553 49.22ZM155.084 44.6C154.124 44.6 153.444 44.36 153.044 43.88C152.644 43.36 152.444 42.84 152.444 42.32C152.444 41.88 152.644 41.42 153.044 40.94C153.444 40.42 153.944 40 154.544 39.68C155.144 39.32 155.704 39.14 156.224 39.14C156.664 39.14 157.104 39.28 157.544 39.56C157.984 39.8 158.204 40.28 158.204 41C158.204 41.32 158.084 41.78 157.844 42.38C157.604 42.94 157.244 43.46 156.764 43.94C156.324 44.38 155.764 44.6 155.084 44.6ZM193.421 49.22C190.861 49.22 188.621 48.7 186.701 47.66C184.781 46.66 183.281 45.32 182.201 43.64C181.161 41.92 180.641 40.02 180.641 37.94C180.641 36.18 181.021 34.44 181.781 32.72C182.541 31 183.601 29.44 184.961 28.04C186.361 26.6 187.981 25.4 189.821 24.44C191.701 23.44 193.741 22.78 195.941 22.46C194.501 21.18 193.421 19.76 192.701 18.2C191.981 16.64 191.621 15.04 191.621 13.4C191.621 11.28 192.161 9.26 193.241 7.34C194.321 5.42 195.841 3.86 197.801 2.66C199.761 1.46 202.041 0.859998 204.641 0.859998C207.081 0.859998 208.961 1.46 210.281 2.66C211.601 3.82 212.261 5.52 212.261 7.76C212.261 9.32 211.981 10.82 211.421 12.26C210.861 13.66 210.181 14.8 209.381 15.68C208.621 16.56 207.861 17 207.101 17C206.541 17 206.001 16.76 205.481 16.28C205.001 15.76 204.581 15.18 204.221 14.54C205.701 13.34 206.941 12.06 207.941 10.7C208.981 9.34 209.501 7.94 209.501 6.5C209.501 5.3 209.101 4.4 208.301 3.8C207.501 3.16 206.461 2.84 205.181 2.84C203.381 2.84 201.861 3.4 200.621 4.52C199.421 5.6 198.501 7 197.861 8.72C197.261 10.4 196.961 12.14 196.961 13.94C196.961 15.66 197.281 17.4 197.921 19.16C198.561 20.88 199.721 22.38 201.401 23.66C198.521 24.1 196.021 25.1 193.901 26.66C191.781 28.18 190.141 29.96 188.981 32C187.821 34.04 187.241 36.06 187.241 38.06C187.241 39.26 187.481 40.52 187.961 41.84C188.481 43.16 189.301 44.26 190.421 45.14C191.581 46.06 193.121 46.52 195.041 46.52C197.241 46.52 199.401 45.9 201.521 44.66C203.641 43.46 205.581 41.86 207.341 39.86C209.141 37.86 210.581 35.74 211.661 33.5L213.281 34.52C211.801 37.28 210.061 39.78 208.061 42.02C206.061 44.22 203.841 45.96 201.401 47.24C198.961 48.56 196.301 49.22 193.421 49.22ZM215.455 45.8C213.575 45.8 212.255 45.18 211.495 43.94C210.775 42.66 210.415 41.16 210.415 39.44C210.415 37.48 210.775 35.18 211.495 32.54C212.215 29.9 213.155 27.14 214.315 24.26C215.515 21.34 216.815 18.5 218.215 15.74C219.655 12.94 221.095 10.42 222.535 8.18C223.975 5.94 225.295 4.16 226.495 2.84C227.735 1.48 228.735 0.799998 229.495 0.799998C230.015 0.799998 230.455 1.08 230.815 1.64C231.175 2.16 231.455 2.8 231.655 3.56C231.895 4.28 232.015 4.96 232.015 5.6C232.015 6.68 231.735 8.1 231.175 9.86C230.655 11.58 229.895 13.48 228.895 15.56C227.935 17.64 226.775 19.78 225.415 21.98C224.095 24.14 222.615 26.2 220.975 28.16C219.375 30.12 217.655 31.82 215.815 33.26C215.655 34.26 215.495 35.26 215.335 36.26C215.215 37.22 215.155 38.1 215.155 38.9C215.155 40.34 215.395 41.4 215.875 42.08C216.355 42.72 216.975 43.04 217.735 43.04C218.735 43.04 219.755 42.58 220.795 41.66C221.875 40.7 222.895 39.5 223.855 38.06C224.855 36.58 225.715 35.06 226.435 33.5L227.875 34.28C226.155 37.84 224.235 40.66 222.115 42.74C219.995 44.78 217.775 45.8 215.455 45.8ZM216.895 29.54C218.255 28.06 219.535 26.46 220.735 24.74C221.975 22.98 223.095 21.2 224.095 19.4C225.135 17.6 226.035 15.86 226.795 14.18C227.555 12.5 228.135 11 228.535 9.68C228.975 8.32 229.215 7.24 229.255 6.44C229.255 6.4 229.255 6.38 229.255 6.38C229.255 6.34 229.255 6.3 229.255 6.26C228.935 6.26 228.415 6.72 227.695 7.64C227.015 8.52 226.195 9.74 225.235 11.3C224.275 12.86 223.275 14.64 222.235 16.64C221.235 18.64 220.255 20.76 219.295 23C218.375 25.2 217.575 27.38 216.895 29.54ZM229.562 45.8C228.202 45.8 227.082 45.18 226.202 43.94C225.362 42.66 224.942 41.2 224.942 39.56C224.942 38.44 225.122 37.12 225.482 35.6C225.842 34.08 226.302 32.6 226.862 31.16C227.462 29.72 228.062 28.52 228.662 27.56C229.302 26.6 229.882 26.12 230.402 26.12C230.682 26.12 231.102 26.28 231.662 26.6C232.262 26.88 232.782 27.24 233.222 27.68C232.782 28.32 232.242 29.3 231.602 30.62C231.002 31.94 230.462 33.36 229.982 34.88C229.502 36.4 229.262 37.78 229.262 39.02C229.262 39.18 229.282 39.56 229.322 40.16C229.402 40.76 229.562 41.32 229.802 41.84C230.042 42.36 230.462 42.62 231.062 42.62C231.742 42.62 232.462 42.26 233.222 41.54C234.022 40.78 234.822 39.82 235.622 38.66C236.462 37.46 237.262 36.18 238.022 34.82C238.822 33.46 239.522 32.14 240.122 30.86C240.762 29.58 241.282 28.5 241.682 27.62C242.042 27.66 242.502 27.76 243.062 27.92C243.662 28.08 244.182 28.3 244.622 28.58C245.062 28.82 245.282 29.18 245.282 29.66C245.282 29.78 245.082 30.28 244.682 31.16C244.322 32 243.882 33.02 243.362 34.22C242.882 35.42 242.442 36.66 242.042 37.94C241.682 39.18 241.502 40.28 241.502 41.24C241.502 41.8 241.602 42.3 241.802 42.74C242.042 43.14 242.482 43.34 243.122 43.34C243.962 43.34 244.962 42.96 246.122 42.2C247.282 41.44 248.482 40.34 249.722 38.9C250.962 37.46 252.062 35.74 253.022 33.74L253.922 34.46C253.042 36.62 251.902 38.56 250.502 40.28C249.102 42 247.602 43.34 246.002 44.3C244.402 45.3 242.842 45.8 241.322 45.8C240.162 45.8 239.282 45.52 238.682 44.96C238.122 44.44 237.742 43.76 237.542 42.92C237.342 42.04 237.222 41.16 237.182 40.28C237.182 40.08 237.182 39.88 237.182 39.68C237.182 39.44 237.182 39.24 237.182 39.08C236.502 40.16 235.762 41.22 234.962 42.26C234.162 43.26 233.302 44.1 232.382 44.78C231.502 45.46 230.562 45.8 229.562 45.8ZM282.866 45.86C281.306 45.86 280.146 45.4 279.386 44.48C278.626 43.56 278.246 42.46 278.246 41.18C278.246 40.26 278.386 39.34 278.666 38.42C278.946 37.5 279.226 36.6 279.506 35.72C279.786 34.8 279.926 33.98 279.926 33.26C279.926 32.58 279.786 32.12 279.506 31.88C279.266 31.6 278.946 31.46 278.546 31.46C277.626 31.46 276.546 32.16 275.306 33.56C274.106 34.96 272.606 37 270.806 39.68C270.166 40.64 269.566 41.66 269.006 42.74C268.446 43.78 267.946 44.66 267.506 45.38C267.146 45.38 266.666 45.32 266.066 45.2C265.506 45.08 265.006 44.9 264.566 44.66C264.126 44.46 263.906 44.18 263.906 43.82C263.906 43.46 264.106 42.76 264.506 41.72C264.906 40.68 265.366 39.48 265.886 38.12C266.406 36.72 266.866 35.36 267.266 34.04C267.666 32.68 267.866 31.54 267.866 30.62C267.866 30.06 267.766 29.62 267.566 29.3C267.366 28.98 267.046 28.82 266.606 28.82C265.766 28.82 264.746 29.32 263.546 30.32C262.386 31.32 261.146 32.64 259.826 34.28C258.546 35.88 257.326 37.68 256.166 39.68C255.046 41.64 254.126 43.62 253.406 45.62C252.966 45.62 252.426 45.52 251.786 45.32C251.146 45.16 250.586 44.94 250.106 44.66C249.626 44.42 249.386 44.2 249.386 44C249.386 43.96 249.526 43.4 249.806 42.32C250.086 41.2 250.426 39.82 250.826 38.18C251.226 36.54 251.646 34.86 252.086 33.14C252.526 31.42 252.906 29.92 253.226 28.64C253.346 28.2 253.786 27.82 254.546 27.5C255.306 27.14 255.966 26.96 256.526 26.96C257.086 26.96 257.566 27.14 257.966 27.5C258.366 27.86 258.566 28.34 258.566 28.94C258.566 29.34 258.486 29.92 258.326 30.68C258.166 31.44 257.966 32.3 257.726 33.26C258.566 32.14 259.446 31.04 260.366 29.96C261.326 28.84 262.306 27.84 263.306 26.96C264.346 26.08 265.366 25.38 266.366 24.86C267.406 24.34 268.426 24.08 269.426 24.08C270.906 24.08 271.906 24.62 272.426 25.7C272.946 26.74 273.206 27.88 273.206 29.12C273.206 29.64 273.166 30.16 273.086 30.68C273.006 31.16 272.886 31.66 272.726 32.18C272.606 32.66 272.426 33.24 272.186 33.92C272.946 32.8 273.766 31.78 274.646 30.86C275.566 29.9 276.546 29.14 277.586 28.58C278.626 28.02 279.726 27.74 280.886 27.74C282.446 27.74 283.526 28.22 284.126 29.18C284.726 30.1 285.026 31.12 285.026 32.24C285.026 33.28 284.846 34.38 284.486 35.54C284.166 36.66 283.826 37.74 283.466 38.78C283.146 39.78 282.986 40.64 282.986 41.36C282.986 41.76 283.086 42.14 283.286 42.5C283.486 42.82 283.886 42.98 284.486 42.98C285.566 42.98 286.606 42.48 287.606 41.48C288.606 40.48 289.526 39.26 290.366 37.82C291.246 36.34 291.986 34.94 292.586 33.62L293.606 34.88C292.966 36.52 292.126 38.2 291.086 39.92C290.086 41.6 288.906 43 287.546 44.12C286.186 45.28 284.626 45.86 282.866 45.86ZM298.056 46.64C295.496 46.64 293.516 45.94 292.116 44.54C290.756 43.18 290.076 41.46 290.076 39.38C290.076 37.62 290.516 35.76 291.396 33.8C292.316 31.8 293.536 29.94 295.056 28.22C296.576 26.46 298.256 25.04 300.096 23.96C301.936 22.88 303.776 22.34 305.616 22.34C306.656 22.34 307.636 22.62 308.556 23.18C309.516 23.7 309.996 24.76 309.996 26.36C309.996 27.88 309.556 29.3 308.676 30.62C307.796 31.94 306.616 33.12 305.136 34.16C303.656 35.2 302.016 36.06 300.216 36.74C298.456 37.38 296.676 37.8 294.876 38C294.836 38.16 294.796 38.34 294.756 38.54C294.756 38.7 294.756 38.98 294.756 39.38C294.756 39.58 294.776 39.94 294.816 40.46C294.896 40.94 295.076 41.46 295.356 42.02C295.636 42.58 296.096 43.06 296.736 43.46C297.376 43.86 298.256 44.06 299.376 44.06C301.056 44.06 302.736 43.6 304.416 42.68C306.136 41.72 307.736 40.46 309.216 38.9C310.736 37.34 311.996 35.6 312.996 33.68L314.196 34.64C313.116 37.04 311.716 39.14 309.996 40.94C308.316 42.74 306.436 44.14 304.356 45.14C302.316 46.14 300.216 46.64 298.056 46.64ZM295.536 35.78C296.576 35.66 297.736 35.3 299.016 34.7C300.296 34.1 301.516 33.34 302.676 32.42C303.876 31.5 304.856 30.5 305.616 29.42C306.376 28.3 306.756 27.18 306.756 26.06C306.756 25.62 306.676 25.32 306.516 25.16C306.356 25 306.096 24.92 305.736 24.92C304.816 24.92 303.856 25.26 302.856 25.94C301.856 26.58 300.876 27.44 299.916 28.52C298.956 29.56 298.096 30.72 297.336 32C296.576 33.28 295.976 34.54 295.536 35.78ZM316.705 45.8C314.825 45.8 313.505 45.18 312.745 43.94C312.025 42.66 311.665 41.16 311.665 39.44C311.665 37.48 312.025 35.18 312.745 32.54C313.465 29.9 314.405 27.14 315.565 24.26C316.765 21.34 318.065 18.5 319.465 15.74C320.905 12.94 322.345 10.42 323.785 8.18C325.225 5.94 326.545 4.16 327.745 2.84C328.985 1.48 329.985 0.799998 330.745 0.799998C331.265 0.799998 331.705 1.08 332.065 1.64C332.425 2.16 332.705 2.8 332.905 3.56C333.145 4.28 333.265 4.96 333.265 5.6C333.265 6.68 332.985 8.1 332.425 9.86C331.905 11.58 331.145 13.48 330.145 15.56C329.185 17.64 328.025 19.78 326.665 21.98C325.345 24.14 323.865 26.2 322.225 28.16C320.625 30.12 318.905 31.82 317.065 33.26C316.905 34.26 316.745 35.26 316.585 36.26C316.465 37.22 316.405 38.1 316.405 38.9C316.405 40.34 316.645 41.4 317.125 42.08C317.605 42.72 318.225 43.04 318.985 43.04C319.985 43.04 321.005 42.58 322.045 41.66C323.125 40.7 324.145 39.5 325.105 38.06C326.105 36.58 326.965 35.06 327.685 33.5L329.125 34.28C327.405 37.84 325.485 40.66 323.365 42.74C321.245 44.78 319.025 45.8 316.705 45.8ZM318.145 29.54C319.505 28.06 320.785 26.46 321.985 24.74C323.225 22.98 324.345 21.2 325.345 19.4C326.385 17.6 327.285 15.86 328.045 14.18C328.805 12.5 329.385 11 329.785 9.68C330.225 8.32 330.465 7.24 330.505 6.44C330.505 6.4 330.505 6.38 330.505 6.38C330.505 6.34 330.505 6.3 330.505 6.26C330.185 6.26 329.665 6.72 328.945 7.64C328.265 8.52 327.445 9.74 326.485 11.3C325.525 12.86 324.525 14.64 323.485 16.64C322.485 18.64 321.505 20.76 320.545 23C319.625 25.2 318.825 27.38 318.145 29.54ZM330.812 45.8C329.452 45.8 328.332 45.18 327.452 43.94C326.612 42.66 326.192 41.2 326.192 39.56C326.192 38.44 326.372 37.12 326.732 35.6C327.092 34.08 327.552 32.6 328.112 31.16C328.712 29.72 329.312 28.52 329.912 27.56C330.552 26.6 331.132 26.12 331.652 26.12C331.932 26.12 332.352 26.28 332.912 26.6C333.512 26.88 334.032 27.24 334.472 27.68C334.032 28.32 333.492 29.3 332.852 30.62C332.252 31.94 331.712 33.36 331.232 34.88C330.752 36.4 330.512 37.78 330.512 39.02C330.512 39.18 330.532 39.56 330.572 40.16C330.652 40.76 330.812 41.32 331.052 41.84C331.292 42.36 331.712 42.62 332.312 42.62C332.992 42.62 333.712 42.26 334.472 41.54C335.272 40.78 336.072 39.82 336.872 38.66C337.712 37.46 338.512 36.18 339.272 34.82C340.072 33.46 340.772 32.14 341.372 30.86C342.012 29.58 342.532 28.5 342.932 27.62C343.292 27.66 343.752 27.76 344.312 27.92C344.912 28.08 345.432 28.3 345.872 28.58C346.312 28.82 346.532 29.18 346.532 29.66C346.532 29.78 346.332 30.28 345.932 31.16C345.572 32 345.132 33.02 344.612 34.22C344.132 35.42 343.692 36.66 343.292 37.94C342.932 39.18 342.752 40.28 342.752 41.24C342.752 41.8 342.852 42.3 343.052 42.74C343.292 43.14 343.732 43.34 344.372 43.34C345.212 43.34 346.212 42.96 347.372 42.2C348.532 41.44 349.732 40.34 350.972 38.9C352.212 37.46 353.312 35.74 354.272 33.74L355.172 34.46C354.292 36.62 353.152 38.56 351.752 40.28C350.352 42 348.852 43.34 347.252 44.3C345.652 45.3 344.092 45.8 342.572 45.8C341.412 45.8 340.532 45.52 339.932 44.96C339.372 44.44 338.992 43.76 338.792 42.92C338.592 42.04 338.472 41.16 338.432 40.28C338.432 40.08 338.432 39.88 338.432 39.68C338.432 39.44 338.432 39.24 338.432 39.08C337.752 40.16 337.012 41.22 336.212 42.26C335.412 43.26 334.552 44.1 333.632 44.78C332.752 45.46 331.812 45.8 330.812 45.8Z" fill="black"/>
</svg>
