<svg width="32" height="32" viewBox="0 0 32 32" fill="none" xmlns="http://www.w3.org/2000/svg">
<circle cx="15.8024" cy="15.8024" r="15.8024" fill="#20224F"/>
<path fill-rule="evenodd" clip-rule="evenodd" d="M16.2931 8.31398C16.4806 8.11294 16.735 8 17.0001 8C17.2653 8 17.5196 8.11294 17.7071 8.31398L23.7072 14.7483C23.8947 14.9494 24 15.2221 24 15.5065C24 15.7908 23.8947 16.0635 23.7072 16.2647L17.7071 22.699C17.5185 22.8943 17.2659 23.0024 17.0037 23C16.7415 22.9975 16.4907 22.8847 16.3053 22.6859C16.1199 22.4871 16.0147 22.2181 16.0124 21.9369C16.0102 21.6558 16.111 21.3849 16.2931 21.1826L20.5862 16.5789H9.00001C8.73479 16.5789 8.48044 16.4659 8.2929 16.2648C8.10536 16.0637 8 15.7909 8 15.5065C8 15.2221 8.10536 14.9493 8.2929 14.7482C8.48044 14.5471 8.73479 14.4341 9.00001 14.4341H20.5862L16.2931 9.83033C16.1056 9.62923 16.0003 9.35652 16.0003 9.07216C16.0003 8.7878 16.1056 8.51508 16.2931 8.31398Z" fill="white"/>
</svg>
