<svg width="24" height="26" viewBox="0 0 24 26" fill="none" xmlns="http://www.w3.org/2000/svg">
<path d="M16.039 10.5994H21.031L17.85 7.4164C16.8259 6.39228 15.5502 5.6558 14.1512 5.28101C12.7522 4.90622 11.2792 4.90633 9.88027 5.28133C8.48133 5.65632 7.20576 6.39299 6.1818 7.41727C5.15784 8.44155 4.42156 9.71735 4.047 11.1164M3.001 20.8954V15.9034M3.001 15.9034H7.993M3.001 15.9034L6.181 19.0864C7.20512 20.1105 8.48079 20.847 9.87979 21.2218C11.2788 21.5966 12.7518 21.5965 14.1507 21.2215C15.5497 20.8465 16.8252 20.1098 17.8492 19.0855C18.8732 18.0613 19.6094 16.7855 19.984 15.3864M21.031 5.60741V10.5974" stroke="white" stroke-width="1.5" stroke-linecap="round" stroke-linejoin="round"/>
</svg>
